# xmcd
#
# Track frame offsets:
#	150
#	13185
#	33122
#	52890
#	79220
#	105900
#	128980
#	157317
#	188152
#	206682
#	241172
#	265642
#	285777
#	307722
#	314255
#
# Disc length: 4678 seconds
#
# Revision: 0
# Processed by: cddbd v1.5PL3 Copyright (c) Steve Scherf et al.
# Submitted via: EasyCDDAExtractor 4.5.0.2
#
DISCID=b712440f
DTITLE=George Michael - Patience
DYEAR=2004
DGENRE=Pop
TTITLE0=Patience
TTITLE1=Amazing
TTITLE2=John And Elvis Are Dead
TTITLE3=Cars And Trains
TTITLE4=Round Here
TTITLE5=Shoot The Dog
TTITLE6=My Mother Had A Brother
TTITLE7=Flawless (Go To The City)
TTITLE8=American Angel
TTITLE9=Precious Box
TTITLE10=Please Send Me Someone
TTITLE11=Freeek! '04
TTITLE12=Through
TTITLE13=Patience Part II
TTITLE14=Amazing (Club Mix)
EXTD=
EXTT0=
EXTT1=
EXTT2=
EXTT3=
EXTT4=
EXTT5=
EXTT6=
EXTT7=
EXTT8=
EXTT9=
EXTT10=
EXTT11=
EXTT12=
EXTT13=
EXTT14=
PLAYORDER=
